<svg width="20" height="20" viewBox="0 0 20 20" fill="none" xmlns="http://www.w3.org/2000/svg">
<g clip-path="url(#clip0_1038_482)">
<path d="M11.8199 3.62999C11.3949 3.50749 10.9524 3.75499 10.8299 4.17999L7.62986 15.38C7.50736 15.805 7.75486 16.2475 8.17986 16.37C8.60486 16.4925 9.04736 16.245 9.16986 15.82L12.3699 4.61999C12.4924 4.19499 12.2449 3.75249 11.8199 3.62999ZM13.8349 6.63249C13.5224 6.94499 13.5224 7.45249 13.8349 7.76499L16.0674 9.99999L13.8324 12.235C13.5199 12.5475 13.5199 13.055 13.8324 13.3675C14.1449 13.68 14.6524 13.68 14.9649 13.3675L17.7649 10.5675C18.0774 10.255 18.0774 9.74749 17.7649 9.43499L14.9649 6.63499C14.6524 6.32249 14.1449 6.32249 13.8324 6.63499L13.8349 6.63249ZM6.16736 6.63249C5.85486 6.31999 5.34736 6.31999 5.03486 6.63249L2.23486 9.43249C1.92236 9.74499 1.92236 10.2525 2.23486 10.565L5.03486 13.365C5.34736 13.6775 5.85486 13.6775 6.16736 13.365C6.47986 13.0525 6.47986 12.545 6.16736 12.2325L3.93236 9.99999L6.16736 7.76499C6.47986 7.45249 6.47986 6.94499 6.16736 6.63249Z" fill="#A5A5A5"/>
</g>
<defs>
<clipPath id="clip0_1038_482">
<rect width="16" height="12.8" fill="white" transform="translate(2 3.6001)"/>
</clipPath>
</defs>
</svg>
