<svg width="20" height="20" viewBox="0 0 20 20" fill="none" xmlns="http://www.w3.org/2000/svg">
<g clip-path="url(#clip0_1038_499)">
<path d="M17.5969 2.19685C17.85 2.38435 18 2.68435 18 2.99998V5.24998V13.5C18 14.8812 16.6562 16 15 16C13.3438 16 12 14.8812 12 13.5C12 12.1187 13.3438 11 15 11C15.35 11 15.6875 11.05 16 11.1437V6.59373L8 8.99373V15.5C8 16.8812 6.65625 18 5 18C3.34375 18 2 16.8812 2 15.5C2 14.1187 3.34375 13 5 13C5.35 13 5.6875 13.05 6 13.1437V8.24998V5.99998C6 5.55935 6.29063 5.16873 6.7125 5.0406L16.7125 2.0406C17.0156 1.94998 17.3438 2.00623 17.5969 2.19685Z" fill="#A5A5A5"/>
</g>
<defs>
<clipPath id="clip0_1038_499">
<rect width="16" height="16" fill="white" transform="translate(2 2)"/>
</clipPath>
</defs>
</svg>
