<svg width="20" height="20" viewBox="0 0 20 20" fill="none" xmlns="http://www.w3.org/2000/svg">
<g clip-path="url(#clip0_1038_505)">
<path d="M10 2C8.34375 2 7 3.34375 7 5V10C7 11.6562 8.34375 13 10 13C11.6562 13 13 11.6562 13 10V5C13 3.34375 11.6562 2 10 2ZM6 8.75C6 8.33437 5.66562 8 5.25 8C4.83437 8 4.5 8.33437 4.5 8.75V10C4.5 12.7844 6.56875 15.0844 9.25 15.45V16.5H7.75C7.33437 16.5 7 16.8344 7 17.25C7 17.6656 7.33437 18 7.75 18H10H12.25C12.6656 18 13 17.6656 13 17.25C13 16.8344 12.6656 16.5 12.25 16.5H10.75V15.45C13.4312 15.0844 15.5 12.7844 15.5 10V8.75C15.5 8.33437 15.1656 8 14.75 8C14.3344 8 14 8.33437 14 8.75V10C14 12.2094 12.2094 14 10 14C7.79063 14 6 12.2094 6 10V8.75Z" fill="#A5A5A5"/>
</g>
<defs>
<clipPath id="clip0_1038_505">
<rect width="12" height="16" fill="white" transform="translate(4 2)"/>
</clipPath>
</defs>
</svg>
