<svg width="20" height="20" viewBox="0 0 20 20" fill="none" xmlns="http://www.w3.org/2000/svg">
<g clip-path="url(#clip0_1038_484)">
<path d="M13 10C13 10.6938 12.9625 11.3625 12.8969 12H7.10625C7.0375 11.3625 7.00313 10.6938 7.00313 10C7.00313 9.30625 7.04062 8.6375 7.10625 8H12.8969C12.9656 8.6375 13 9.30625 13 10ZM13.9 8H17.7469C17.9125 8.64062 18 9.30937 18 10C18 10.6906 17.9125 11.3594 17.7469 12H13.9C13.9656 11.3562 14 10.6875 14 10C14 9.3125 13.9656 8.64375 13.9 8ZM17.4187 7H13.7719C13.4594 5.00312 12.8406 3.33125 12.0437 2.2625C14.4906 2.90938 16.4812 4.68438 17.4156 7H17.4187ZM12.7594 7H7.24062C7.43125 5.8625 7.725 4.85625 8.08437 4.04063C8.4125 3.30313 8.77812 2.76875 9.13125 2.43125C9.48125 2.1 9.77187 2 10 2C10.2281 2 10.5187 2.1 10.8687 2.43125C11.2219 2.76875 11.5875 3.30313 11.9156 4.04063C12.2781 4.85313 12.5687 5.85938 12.7594 7ZM6.22813 7H2.58125C3.51875 4.68438 5.50625 2.90938 7.95625 2.2625C7.15938 3.33125 6.54063 5.00312 6.22813 7ZM2.25313 8H6.1C6.03437 8.64375 6 9.3125 6 10C6 10.6875 6.03437 11.3562 6.1 12H2.25313C2.0875 11.3594 2 10.6906 2 10C2 9.30937 2.0875 8.64062 2.25313 8ZM8.08437 15.9563C7.72187 15.1438 7.43125 14.1375 7.24062 13H12.7594C12.5687 14.1375 12.275 15.1438 11.9156 15.9563C11.5875 16.6938 11.2219 17.2281 10.8687 17.5656C10.5187 17.9 10.2281 18 10 18C9.77187 18 9.48125 17.9 9.13125 17.5688C8.77812 17.2313 8.4125 16.6969 8.08437 15.9594V15.9563ZM6.22813 13C6.54063 14.9969 7.15938 16.6687 7.95625 17.7375C5.50625 17.0906 3.51875 15.3156 2.58125 13H6.22813ZM17.4187 13C16.4812 15.3156 14.4937 17.0906 12.0469 17.7375C12.8438 16.6687 13.4594 14.9969 13.775 13H17.4219H17.4187Z" fill="#A5A5A5"/>
</g>
<defs>
<clipPath id="clip0_1038_484">
<rect width="16" height="16" fill="white" transform="translate(2 2)"/>
</clipPath>
</defs>
</svg>
